<svg width="32" height="32" viewBox="0 0 32 32" fill="none" xmlns="http://www.w3.org/2000/svg">
<path d="M1.44873 12.8218C1.44873 12.7533 1.48875 12.6911 1.55109 12.6628L8.6176 9.44647C8.73331 9.39381 8.86475 9.47839 8.86475 9.60553V19.1788C8.86475 19.2473 8.82473 19.3095 8.76238 19.3379L1.69588 22.5542C1.58017 22.6068 1.44873 22.5222 1.44873 22.3951V12.8218Z" fill="#75C8FF"/>
<path d="M15.8101 12.8218C15.8101 12.7533 15.8501 12.6911 15.9124 12.6628L22.9789 9.44647C23.0946 9.39381 23.2261 9.47839 23.2261 9.60553V19.1788C23.2261 19.2473 23.1861 19.3095 23.1237 19.3379L16.0572 22.5542C15.9415 22.6068 15.8101 22.5222 15.8101 22.3951V12.8218Z" fill="#FFA4A3"/>
<path d="M22.9905 19.1782C22.9905 19.2467 23.0305 19.3089 23.0928 19.3372L30.1593 22.5535C30.2751 22.6062 30.4065 22.5216 30.4065 22.3945V12.8212C30.4065 12.7527 30.3665 12.6905 30.3041 12.6621L23.2376 9.44585C23.1219 9.39318 22.9905 9.47777 22.9905 9.6049V19.1782Z" fill="#D50200"/>
<path d="M8.62891 19.1782C8.62891 19.2467 8.66892 19.3089 8.73127 19.3372L15.7978 22.5535C15.9135 22.6062 16.0449 22.5216 16.0449 22.3945V12.8212C16.0449 12.7527 16.0049 12.6905 15.9426 12.6621L8.87606 9.44585C8.76034 9.39318 8.62891 9.47777 8.62891 9.6049V19.1782Z" fill="#0074C1"/>
</svg>
